<svg id="Laag_1" data-name="Laag 1" xmlns="http://www.w3.org/2000/svg" viewBox="0 0 598.4 207.23"><defs><style>.cls-1{fill:#e5231b;}.cls-2{fill:#ffd500;}</style></defs><title>svg_logo_turnkring-geluwe</title><path class="cls-1" d="M343.59,304.89h-9.48v-38h-14.3v-9.52h38v9.52H343.59Z" transform="translate(-91.56 -191.28)"/><path class="cls-1" d="M400.4,285.89a18.61,18.61,0,0,1-1.49,7.41,19,19,0,0,1-4.08,6,19.3,19.3,0,0,1-6.05,4.07,19.2,19.2,0,0,1-14.83,0,19.09,19.09,0,0,1-6-4.07,18.9,18.9,0,0,1-4.06-6,18.45,18.45,0,0,1-1.5-7.41V257.33h9.49v28.56a9.3,9.3,0,0,0,.74,3.68,9.53,9.53,0,0,0,5.08,5.06,9.6,9.6,0,0,0,7.39,0,9.67,9.67,0,0,0,3-2,9.81,9.81,0,0,0,2-3,9.13,9.13,0,0,0,.74-3.68V257.33h9.52Z" transform="translate(-91.56 -191.28)"/><path class="cls-1" d="M418.18,304.89h-9.52V257.33h19a18.75,18.75,0,0,1,5,.68,19.12,19.12,0,0,1,4.52,1.93,18.81,18.81,0,0,1,3.85,3,19.27,19.27,0,0,1,3,3.86,19.5,19.5,0,0,1,1.92,4.55,18.64,18.64,0,0,1,.68,5,19,19,0,0,1-.61,4.77,19.62,19.62,0,0,1-1.76,4.41,18.49,18.49,0,0,1-2.8,3.85,19.14,19.14,0,0,1-3.72,3.05l5.27,12.44H433l-4.15-9.58-10.64.06Zm0-38v19h9.52a9.14,9.14,0,0,0,3.68-.75,9.81,9.81,0,0,0,3-2,9.44,9.44,0,0,0,2-3,9.5,9.5,0,0,0,0-7.4,9.49,9.49,0,0,0-5.05-5.07,9.14,9.14,0,0,0-3.68-.75Z" transform="translate(-91.56 -191.28)"/><path class="cls-1" d="M491,304.89H480.79l-18.34-31.31v31.31h-9.52V257.33h10.19l18.34,31.34V257.33H491Z" transform="translate(-91.56 -191.28)"/><path class="cls-1" d="M509.31,304.89h-9.52V257.33h9.52v23.78L527,257.33h10.81l-15,20.07,15,27.49H527l-10.44-19.24-7.27,9.72Z" transform="translate(-91.56 -191.28)"/><path class="cls-1" d="M551.76,304.89h-9.52V257.33h19a18.64,18.64,0,0,1,5,.68,19.13,19.13,0,0,1,13.28,13.32,18.25,18.25,0,0,1,.68,5,18.51,18.51,0,0,1-.61,4.77,19.16,19.16,0,0,1-1.76,4.41,18.14,18.14,0,0,1-2.8,3.85,18.79,18.79,0,0,1-3.71,3.05l5.27,12.44H566.55l-4.14-9.58-10.65.06Zm0-38v19h9.52a9.11,9.11,0,0,0,3.68-.75,9.56,9.56,0,0,0,5.06-5.07,9.5,9.5,0,0,0,0-7.4,9.63,9.63,0,0,0-2-3,9.37,9.37,0,0,0-3-2,9.11,9.11,0,0,0-3.68-.75Z" transform="translate(-91.56 -191.28)"/><path class="cls-1" d="M596,304.89h-9.52V257.33H596Z" transform="translate(-91.56 -191.28)"/><path class="cls-1" d="M642.9,304.89H632.72l-18.34-31.31v31.31h-9.52V257.33H615l18.34,31.34V257.33h9.52Z" transform="translate(-91.56 -191.28)"/><path class="cls-1" d="M689.56,300.08a24.46,24.46,0,0,1-15.89,5.84,24.24,24.24,0,0,1-6.51-.88,24.66,24.66,0,0,1-10.83-6.34,24.06,24.06,0,0,1-3.85-5,25.2,25.2,0,0,1-2.47-5.89,24.38,24.38,0,0,1-.88-6.53,24.06,24.06,0,0,1,.88-6.5,25.26,25.26,0,0,1,2.47-5.85,23.86,23.86,0,0,1,3.85-5,24.87,24.87,0,0,1,5-3.83,25.16,25.16,0,0,1,5.86-2.47,24.58,24.58,0,0,1,15,.63,24.49,24.49,0,0,1,7.4,4.33l-5,8.29a16,16,0,0,0-5-3.43,14.8,14.8,0,0,0-11.79-.05,15.5,15.5,0,0,0-4.79,3.23,15.11,15.11,0,0,0-3.25,4.78,14.38,14.38,0,0,0-1.2,5.85,14.58,14.58,0,0,0,1.2,5.9,15.33,15.33,0,0,0,8,8.06,14.41,14.41,0,0,0,5.85,1.2,14,14,0,0,0,3.49-.44,15.43,15.43,0,0,0,3.21-1.19V281.31h9.19Z" transform="translate(-91.56 -191.28)"/><path class="cls-2" d="M543.38,350.27a15.59,15.59,0,0,1-4.23-.57,16,16,0,0,1-3.8-1.61,16.67,16.67,0,0,1-3.23-2.51,15.62,15.62,0,0,1-2.5-3.22,16.65,16.65,0,0,1-1.6-3.83,15.64,15.64,0,0,1-.57-4.23,15.34,15.34,0,0,1,.57-4.21,16.69,16.69,0,0,1,1.6-3.81,15.62,15.62,0,0,1,2.5-3.22,15.83,15.83,0,0,1,3.23-2.49,16,16,0,0,1,3.8-1.61,15.95,15.95,0,0,1,9.73.41,16,16,0,0,1,3.87,2.07l-2,3.33a13.13,13.13,0,0,0-2.61-1.53,11.58,11.58,0,0,0-4.76-1,11.7,11.7,0,0,0-4.71,1,12.56,12.56,0,0,0-3.82,2.58,12.25,12.25,0,0,0-2.59,3.81,12,12,0,0,0,0,9.44,12.27,12.27,0,0,0,2.59,3.84,12.41,12.41,0,0,0,3.82,2.59,11.7,11.7,0,0,0,4.71,1,11.5,11.5,0,0,0,2.81-.34,13,13,0,0,0,2.55-.95l.79-.4v-9h3.65v11.18a15.87,15.87,0,0,1-9.8,3.38Z" transform="translate(-91.56 -191.28)"/><polygon class="cls-2" points="466.64 158.27 466.64 127.49 486.85 127.49 486.85 131.39 470.53 131.39 470.53 140.95 481.57 140.95 481.57 144.84 470.53 144.84 470.53 154.38 486.85 154.38 486.85 158.27 466.64 158.27"/><polygon class="cls-2" points="491.39 158.27 491.39 127.49 495.28 127.49 495.28 154.38 512.09 154.38 512.09 158.27 491.39 158.27"/><path class="cls-2" d="M617.13,349.54a11.65,11.65,0,0,1-4.68-.94,11.9,11.9,0,0,1-3.82-2.57,12.2,12.2,0,0,1-2.58-3.82,11.81,11.81,0,0,1-.93-4.68V318.77H609v18.76a7.84,7.84,0,0,0,.65,3.16A8.13,8.13,0,0,0,614,345a8.17,8.17,0,0,0,6.34,0,8.13,8.13,0,0,0,4.33-4.32,7.83,7.83,0,0,0,.64-3.16V318.77h3.89v18.76a11.65,11.65,0,0,1-.94,4.68,11.87,11.87,0,0,1-2.58,3.82,12.05,12.05,0,0,1-3.83,2.57A11.65,11.65,0,0,1,617.13,349.54Z" transform="translate(-91.56 -191.28)"/><path class="cls-2" d="M656.25,350a8.72,8.72,0,0,1-3.09-.56,8.28,8.28,0,0,1-2.65-1.64l-1-.88-1,.88a8.33,8.33,0,0,1-2.66,1.64,8.83,8.83,0,0,1-3.11.56,8.48,8.48,0,0,1-3.37-.67,8.75,8.75,0,0,1-2.76-1.85,8.94,8.94,0,0,1-1.86-2.77,8.62,8.62,0,0,1-.67-3.37V318.77h3.89v22.58a4.85,4.85,0,0,0,1.39,3.41,4.75,4.75,0,0,0,1.52,1,4.8,4.8,0,0,0,5.24-1,4.74,4.74,0,0,0,1.39-3.41V318.77h3.89v22.58a4.85,4.85,0,0,0,1.39,3.41,4.8,4.8,0,0,0,3.38,1.38,4.75,4.75,0,0,0,3.38-1.38,4.86,4.86,0,0,0,1-1.52,4.66,4.66,0,0,0,.38-1.89V318.77h3.87v22.58a8.45,8.45,0,0,1-.67,3.37,8.91,8.91,0,0,1-1.85,2.77,8.68,8.68,0,0,1-2.77,1.85A8.45,8.45,0,0,1,656.25,350Z" transform="translate(-91.56 -191.28)"/><polygon class="cls-2" points="578.19 158.27 578.19 127.49 598.4 127.49 598.4 131.39 582.08 131.39 582.08 140.95 593.12 140.95 593.12 144.84 582.08 144.84 582.08 154.38 598.4 154.38 598.4 158.27 578.19 158.27"/><path class="cls-2" d="M325.56,369c-20.71,23.85-67.72,23.85-93.55,11.28-18.89-9-38.27-13.28-47.64-13.14-41.54.61-57.73-10.07-83,1.67-12,5.56-15.51,11.39,4.31,6.3,20.7-5.32,15,8.71,25.75,8.11,5.09-.29,6.38-7.62,24.46-11.49,18.6-4,92.38-36.2,161.84,7.88,64.93,41.2,174.05,6.32,196.33-21.19,0,0,6.52-7.22,14.58,2.16,6.58,7.65,19.3,2.79,23.93,1.31,6.24-2,14.06-1.69,6.06,4.17C537,381.81,484.77,382,452.88,377.4c-21.66-3.11-37.81-10.67-57.51,3.61-11-12.35-137-54.07-128-118.53,2.87-20.54,20.87-41.21,44.28-46.21,15.15-40.67,24.27-20.56,36.73-16,30.83,11.25,2.48,34.4,42.61,20.75,12.82,4.89,65.26,9.59,80.5,7,5.41-.92,26.41,15.58,23.91,16.42-30.94-2.34-22.2-15.84-23.91-16.42C403,204.88,366.21,199.27,364.61,214.81c-3.76,36.61-37.4,9.79-53,1.46-91.45-48.9-115.77,80.43-17.23,103.12C305.1,325.2,362.36,319.45,325.56,369Z" transform="translate(-91.56 -191.28)"/></svg>